<svg preserveAspectRatio="none" width="100%" height="100%" overflow="visible" style="display: block;" viewBox="0 0 123.994 31.5337" fill="none" xmlns="http://www.w3.org/2000/svg">
<path id="Load" d="M25.2128 22.5048L25.9472 22.6606L23.3658 30.8443H0V30.0212H1.13497C2.41078 30.0212 3.32313 29.6059 3.87203 28.7759C4.18347 28.3012 4.33934 27.2047 4.33934 25.4848V6.02593C4.33934 4.14308 4.13146 2.96427 3.71632 2.49047C3.13767 1.83801 2.27721 1.51156 1.13497 1.51156H0V0.689169H13.6634V1.51156C12.0612 1.50022 10.9337 1.64526 10.281 1.95632C9.64305 2.26775 9.20543 2.66036 8.96807 3.135C8.73072 3.60967 8.61242 4.74371 8.61242 6.53736V25.4848C8.61242 26.7152 8.7311 27.5603 8.96807 28.02C9.14609 28.3307 9.42046 28.5613 9.79138 28.7093C10.1622 28.8571 11.3195 28.9315 13.2629 28.9315H15.4659C17.7803 28.9315 19.4047 28.7607 20.3394 28.42C21.274 28.0784 22.127 27.4787 22.8984 26.6186C23.6699 25.7438 24.4414 24.3728 25.2128 22.5048ZM43.6161 0C47.5327 0 50.9226 1.48977 53.7858 4.46985C56.6638 7.43504 58.1028 11.1412 58.1028 15.5891C58.1028 20.1701 56.6561 23.9725 53.7635 26.9973C50.8706 30.0212 47.3695 31.5337 43.2601 31.5337C39.1062 31.5337 35.6124 30.0582 32.7788 27.1078C29.9601 24.1583 28.5507 20.34 28.5507 15.6556C28.5507 10.8671 30.1826 6.96034 33.4465 3.93559C36.28 1.31184 39.6698 0 43.6161 0ZM43.1931 1.62286C40.493 1.62286 38.327 2.62376 36.6951 4.62487C34.6626 7.1163 33.6465 10.7629 33.6465 15.5663C33.6465 20.4888 34.6998 24.2764 36.8064 26.9299C38.4235 28.9467 40.5598 29.9548 43.2153 29.9548C46.049 29.9548 48.3854 28.8504 50.2251 26.641C52.0795 24.4324 53.0067 20.9477 53.0067 16.1889C53.0067 11.0299 51.9905 7.18286 49.958 4.64759C48.3261 2.63076 46.0711 1.62286 43.1931 1.62286ZM80.7337 20.7481H69.0514L67.0043 25.5069C66.4995 26.6785 66.2472 27.5525 66.2472 28.1313C66.2472 28.5903 66.4626 28.9985 66.893 29.3541C67.3373 29.6958 68.2872 29.9179 69.741 30.0212V30.8444H60.239V30.0212C61.5 29.799 62.3159 29.5098 62.6867 29.1542C63.4438 28.4423 64.2816 26.9973 65.2016 24.8176L75.8158 0H76.5948L87.0983 25.0847C87.944 27.1007 88.7082 28.4127 89.3908 29.0204C90.0876 29.6141 91.0523 29.9468 92.2835 30.0212V30.8444H80.3779V30.0212C81.5794 29.9619 82.3882 29.7616 82.8035 29.4206C83.2335 29.0801 83.4493 28.6648 83.4493 28.1753C83.4493 27.5229 83.1527 26.4929 82.559 25.0847L80.7337 20.7481ZM80.1106 19.1026L74.9929 6.91579L69.7411 19.1026H80.1106ZM93.5964 30.8444V30.0212H94.7312C96.0071 30.0212 96.9123 29.6138 97.446 28.7979C97.7726 28.3092 97.9359 27.2119 97.9359 25.5069V6.02604C97.9359 4.14323 97.728 2.96446 97.3128 2.49058C96.7344 1.83816 95.8738 1.51156 94.7312 1.51156H93.5964V0.689169H105.88C110.39 0.689169 113.817 1.20063 116.161 2.22356C118.52 3.24638 120.411 4.95151 121.836 7.33794C123.275 9.72509 123.994 12.4829 123.994 15.6111C123.994 19.8067 122.718 23.3131 120.167 26.1296C117.303 29.2726 112.942 30.8444 107.082 30.8444H93.5964ZM102.208 28.6648C104.092 29.0801 105.672 29.2874 106.948 29.2874C110.39 29.2874 113.246 28.0789 115.516 25.6627C117.786 23.2457 118.92 19.9696 118.92 15.8335C118.92 11.6676 117.786 8.38352 115.516 5.98141C113.246 3.58001 110.331 2.37939 106.77 2.37939C105.435 2.37939 103.914 2.59374 102.208 3.02404L102.208 28.6648Z" fill="var(--fill-0, #5271FF)"/>
</svg>
