<svg preserveAspectRatio="none" width="100%" height="100%" overflow="visible" style="display: block;" viewBox="0 0 16.5766 9.32475" fill="none" xmlns="http://www.w3.org/2000/svg">
<path id="path215" d="M7.63489 9.29978C6.09424 9.17445 4.63314 8.65481 3.1914 7.71945C2.15226 7.04534 0.93453 5.90165 0.175752 4.88718L0 4.65243L0.239248 4.34039C1.51174 2.68034 3.32693 1.28179 5.10002 0.595303C6.21132 0.165037 7.09159 0.000697057 8.28868 1.61578e-06C9.97722 -0.000947056 11.4217 0.415803 13.0393 1.37082C14.2034 2.05802 15.5452 3.2747 16.4012 4.41908L16.5766 4.65337L16.4621 4.80626C15.2554 6.41477 13.6269 7.75382 11.9667 8.50258C10.5684 9.13326 9.04129 9.41419 7.63489 9.29978ZM5.66693 7.63811C4.68958 6.7805 4.18449 5.48853 4.3323 4.22423C4.43775 3.3207 4.84097 2.4913 5.49328 1.83555C5.8969 1.42977 5.90016 1.43293 5.29106 1.66528C4.02673 2.14761 2.58689 3.15482 1.63509 4.22273C1.43666 4.44528 1.27415 4.63866 1.27415 4.65247C1.27415 4.66608 1.42721 4.8509 1.61467 5.06278C2.56761 6.13947 3.89587 7.07415 5.27006 7.63506C5.87706 7.88282 5.94639 7.88332 5.66693 7.63811ZM11.2098 7.67288C12.1049 7.32436 12.9967 6.80394 13.7929 6.16564C14.1778 5.85712 15.0158 5.04217 15.2102 4.78746L15.3127 4.65369L15.1562 4.46237C14.4319 3.57914 13.1761 2.58516 12.0818 2.0289C11.6505 1.80972 11.0229 1.547 10.7987 1.49195C10.6875 1.46435 10.6947 1.47758 10.8909 1.65163C11.5326 2.22116 11.933 2.87326 12.1464 3.69626C12.2689 4.16765 12.298 4.94584 12.2096 5.36688C12.0145 6.29356 11.5298 7.13576 10.8847 7.66848C10.7758 7.75843 10.7123 7.83206 10.7444 7.83206C10.7784 7.83206 10.9854 7.76033 11.2098 7.67288ZM8.95351 7.60477C9.31899 7.52487 9.91179 7.23853 10.196 7.00489C10.6953 6.59441 11.0693 5.99504 11.2307 5.34744C11.3021 5.05966 11.3131 4.92388 11.295 4.5325C11.2545 3.68274 11.0176 3.14311 10.41 2.53022C10.0872 2.20454 9.9632 2.11002 9.67486 1.96954C9.14036 1.70898 8.73792 1.62348 8.16714 1.64911C7.0326 1.70002 6.09642 2.29733 5.59703 3.28869C5.02908 4.41615 5.21333 5.78488 6.05427 6.69326C6.45744 7.1288 7.07031 7.48518 7.61566 7.60148C7.99531 7.68247 8.59166 7.68389 8.95351 7.60477ZM7.98893 6.28327C7.51767 6.20027 6.99349 5.8008 6.80039 5.37772C6.66471 5.08023 6.60686 4.6799 6.65826 4.40429C6.73045 4.02255 6.72783 4.02584 6.86351 4.13969C7.20367 4.42599 7.79663 4.32417 8.04222 3.93718C8.21722 3.66173 8.23611 3.41048 8.10609 3.0968C8.04033 2.93742 8.58496 2.97858 8.99697 3.16408C9.63185 3.44997 10.0295 4.19156 9.91887 4.88356C9.86595 5.21677 9.79831 5.38019 9.61047 5.63649C9.25066 6.12622 8.59109 6.38934 7.98893 6.28327Z" fill="var(--fill-0, #C7C7C7)"/>
</svg>
