<svg preserveAspectRatio="none" width="100%" height="100%" overflow="visible" style="display: block;" viewBox="0 0 15.5836 7.07384" fill="none" xmlns="http://www.w3.org/2000/svg">
<path id="Active Icon" d="M3.43391 7.06982C2.89313 7.02379 2.43771 6.8982 1.9791 6.66847C0.911231 6.13359 0.19587 5.16433 0.0280589 4.02487C-0.00595682 3.81685 -0.0097322 3.29627 0.020504 3.10369C0.102142 2.52124 0.281658 2.0408 0.590899 1.57562C1.10401 0.803382 1.89712 0.264453 2.8033 0.0722257C3.13893 0.00113282 3.16537 0 4.52657 0H5.80303L5.89525 0.0340187C6.11182 0.113842 6.26716 0.267514 6.33701 0.471288C6.38312 0.605272 6.38312 0.797951 6.33701 0.93192C6.2686 1.13148 6.11816 1.28232 5.9022 1.36902L5.81716 1.40303L4.5407 1.41021C3.29002 1.4174 3.26136 1.41815 3.12462 1.44914C2.25506 1.64409 1.62857 2.27278 1.45585 3.12377C1.27254 4.0276 1.70869 4.92082 2.55852 5.38137C2.75997 5.49056 2.95931 5.56207 3.22871 5.62183C3.35797 5.65055 3.41089 5.65168 4.59033 5.66034L5.81716 5.66828L5.9022 5.70229C6.20532 5.82316 6.36955 6.05772 6.36959 6.36973C6.36959 6.53619 6.32915 6.65887 6.24298 6.77722C6.1432 6.91116 6.06231 6.97304 5.90205 7.03721L5.81702 7.07122L4.65402 7.07262C4.01434 7.07339 3.46509 7.07246 3.43391 7.06982ZM9.80918 7.06983C9.7865 7.06656 9.73548 7.05018 9.68862 7.03393C9.36547 6.92066 9.17271 6.59988 9.22529 6.26232C9.26573 6.00448 9.42938 5.80622 9.68862 5.7028L9.77403 5.66878L11.0505 5.66084L12.327 5.65329L12.4899 5.61625C12.6913 5.57078 12.8251 5.52354 13.0051 5.43389C13.7871 5.04534 14.2588 4.18579 14.1641 3.32205C14.0631 2.39615 13.3602 1.66379 12.3693 1.45053C12.2325 1.42105 12.186 1.41954 11.0006 1.4116L9.77388 1.40366L9.68844 1.36964C9.35622 1.23766 9.17278 0.930251 9.22509 0.594141C9.26553 0.332333 9.43598 0.129637 9.6956 0.0344152L9.78781 0.000403697H10.9933C12.275 0.000403697 12.301 0.00151484 12.6547 0.0719085C13.6153 0.263115 14.4888 0.841252 15.0209 1.63781C15.3134 2.07589 15.4961 2.56196 15.5693 3.09698C15.5882 3.26895 15.5882 3.80148 15.57 3.96856C15.4891 4.55018 15.3081 5.03308 14.9934 5.50623C14.4966 6.253 13.7148 6.79095 12.8387 6.98898C12.4743 7.0713 12.5023 7.06997 11.1209 7.07318C10.4188 7.07486 9.82861 7.07315 9.80918 7.06983ZM4.84512 4.23514C4.82244 4.23199 4.76423 4.2136 4.70867 4.19376C4.35528 4.06881 4.16675 3.66555 4.29171 3.30236C4.37259 3.06603 4.58689 2.88353 4.83079 2.84202C4.89655 2.83068 5.75836 2.82765 7.85177 2.8303L10.7806 2.83446L10.8645 2.86621C11.0803 2.94845 11.2345 3.1073 11.3071 3.32319C11.3475 3.44553 11.3449 3.65662 11.2957 3.78039C11.2152 3.9872 11.0754 4.12568 10.8653 4.20568L10.7825 4.23743L7.83236 4.23917C6.20988 4.24015 4.86451 4.23846 4.84512 4.23514Z" fill="var(--fill-0, #C7C7C7)"/>
</svg>
