<svg preserveAspectRatio="none" width="100%" height="100%" overflow="visible" style="display: block;" viewBox="0 0 26.9312 27.0849" fill="none" xmlns="http://www.w3.org/2000/svg">
<path id="Setting" d="M12.0136 0.00204732L11.9497 0.242622C11.8858 0.374641 11.7396 1.09944 11.5617 1.85496C11.3836 2.61048 11.2147 3.29443 11.1826 3.37171C11.1188 3.46415 11.0317 3.53361 10.8537 3.57961C10.2706 3.72909 9.40909 4.06966 8.71963 4.42371C8.3224 4.62796 7.97162 4.79633 7.93738 4.79633C7.8735 4.79633 7.23436 4.39106 6.45177 3.89943C5.66828 3.40747 5.00696 3.00584 4.98231 3.00584C4.98231 3.00584 4.4756 3.47354 3.90848 4.04447L2.88055 5.08321L3.67295 6.36255C4.1113 7.06536 4.52305 7.75657 4.59569 7.89907L4.72787 8.1562L4.40399 8.72662C4.04796 9.35003 3.77723 10.0112 3.57952 10.7413C3.51565 10.9837 3.41964 11.2192 3.36937 11.2817C3.36843 11.2835 3.3675 11.2863 3.36614 11.2863C3.30227 11.3438 0.248794 12.0776 0.0638995 12.0776C0.0638995 12.0776 0 12.7501 0 13.5746V15.0749L0.242449 15.1388C0.374732 15.1709 1.09297 15.338 1.84317 15.5049C2.64541 15.6829 3.25404 15.8499 3.31931 15.9106C3.38319 15.9681 3.49274 16.2266 3.56153 16.4874C3.73501 17.1089 4.04923 17.8759 4.383 18.4658C4.52889 18.7275 4.64759 19.0018 4.64759 19.0758C4.64759 19.1499 4.24128 19.8662 3.74446 20.6684L2.84041 22.1292L3.88818 23.1843L4.93572 24.2394L5.11819 24.1106C5.3922 23.9207 7.78435 22.4347 7.88432 22.396C7.95273 22.3824 8.33947 22.5519 8.76138 22.775C9.21341 23.0087 9.83712 23.2734 10.2147 23.3882C11.1658 23.678 11.1522 23.6716 11.2193 23.9453C11.2832 24.0786 11.4294 24.8209 11.6119 25.594C11.7949 26.3671 11.9544 27.0211 11.9725 27.0481C11.9725 27.0757 12.6626 27.0941 13.469 27.0802L14.9349 27.0617L15.3871 25.413C15.6018 24.5046 15.8025 23.7389 15.839 23.7116L15.8422 23.7083C15.9061 23.6762 16.1846 23.5808 16.4964 23.4939C16.8619 23.3918 17.4774 23.1342 18.0609 22.841C18.9166 22.411 19.0402 22.3669 19.1703 22.4353C19.2523 22.4813 19.9306 22.8979 20.6762 23.3718L22.0315 24.2357L23.0686 23.1904L24.1067 22.1418L23.1865 20.6251C22.6801 19.7904 22.267 19.0822 22.267 19.049C22.267 19.0119 22.3765 18.8056 22.4952 18.5972C22.8376 18.0089 23.1221 17.3405 23.3526 16.6057C23.4668 16.2427 23.5811 15.9188 23.6087 15.8868C23.6087 15.8547 24.3943 15.6673 25.2943 15.4682L26.9312 15.1058V13.5989V12.0953L26.7854 12.0631C25.2175 11.7287 23.6343 11.3371 23.548 11.2619C23.4841 11.2108 23.434 11.122 23.434 11.0705C23.434 10.8331 22.9463 9.55324 22.6057 8.89095C22.3955 8.48755 22.2266 8.12675 22.231 8.08967C22.2324 8.05263 22.6421 7.36139 23.148 6.55316L24.061 5.08258L23.0239 4.03397L21.9823 2.98217L21.4248 3.32485C21.1186 3.51296 20.4628 3.92144 19.9682 4.23161C19.4742 4.54165 19.0263 4.79569 18.9733 4.79569C18.9094 4.79569 18.6992 4.6899 18.4792 4.56155C17.8285 4.17746 16.8662 3.78256 16.0932 3.58224C15.9473 3.5452 15.8005 3.46493 15.7643 3.40423C15.7643 3.34671 15.5405 2.6023 15.3442 1.75888C15.1476 0.915504 14.9697 0.174923 14.9516 0.113468C14.9516 0.108932 14.9479 0.094943 14.9516 0.0858721L14.9483 0.0825849L14.9451 0.0760104L14.9419 0.0726943C14.878 0.0087825 14.595 0 13.4717 0L12.0136 0.00204732ZM13.5285 7.49691C13.7522 7.49797 13.9804 7.51052 14.2092 7.54291C14.9452 7.63309 15.8695 7.94309 16.5334 8.32111C17.2096 8.70657 18.1991 9.69246 18.6351 10.415C19.7218 12.2156 19.8223 14.393 18.8997 16.2709C17.8966 18.3167 15.9693 19.5788 13.7315 19.6573C13.3433 19.6709 12.8694 19.6547 12.6712 19.6252C10.8348 19.3317 9.26218 18.2719 8.33438 16.7071C7.80884 15.8158 7.56284 14.9968 7.50577 13.9077C7.32322 10.4111 10.159 7.48434 13.525 7.50098L13.5285 7.49691Z" fill="var(--fill-0, #C7C7C7)"/>
</svg>
