<svg preserveAspectRatio="none" width="100%" height="100%" overflow="visible" style="display: block;" viewBox="0 0 15.5836 7.0739" fill="none" xmlns="http://www.w3.org/2000/svg">
<path id="Unlink Link" d="M3.43391 7.06989C2.89313 7.02385 2.43771 6.89826 1.9791 6.66853C0.911231 6.13364 0.19587 5.16437 0.0280589 4.02491C-0.00595682 3.81688 -0.0097322 3.2963 0.020504 3.10372C0.102142 2.52126 0.281658 2.04082 0.590899 1.57564C1.10401 0.803389 1.89712 0.264455 2.8033 0.0722264C3.13893 0.00113283 3.16537 0 4.52657 0H5.80303L5.89525 0.034019C6.11182 0.113843 6.26716 0.267517 6.33701 0.471292C6.38312 0.605277 6.38312 0.797958 6.33701 0.931929C6.2686 1.13149 6.11816 1.28233 5.9022 1.36903L5.81716 1.40305L4.5407 1.41023C3.29002 1.41741 3.26136 1.41816 3.12462 1.44916C2.25506 1.64411 1.62857 2.2728 1.45585 3.1238C1.27254 4.02764 1.70869 4.92086 2.55852 5.38142C2.75997 5.49061 2.95931 5.56212 3.22871 5.62188C3.35797 5.6506 3.41089 5.65173 4.59033 5.66039L5.81716 5.66833L5.9022 5.70235C6.20532 5.82322 6.36956 6.05777 6.36959 6.36979C6.36959 6.53624 6.32915 6.65893 6.24298 6.77728C6.1432 6.91123 6.06231 6.9731 5.90205 7.03728L5.81702 7.07129L4.65402 7.07269C4.01434 7.07346 3.46509 7.07253 3.43391 7.06989ZM9.80918 7.0699C9.7865 7.06663 9.73548 7.05025 9.68862 7.034C9.36547 6.92072 9.17272 6.59994 9.22529 6.26237C9.26573 6.00453 9.42938 5.80627 9.68862 5.70285L9.77403 5.66883L11.0505 5.66089L12.327 5.65334L12.4899 5.6163C12.6913 5.57083 12.8251 5.52359 13.0051 5.43393C13.7871 5.04538 14.2588 4.18583 14.1641 3.32208C14.0631 2.39617 13.3602 1.66381 12.3693 1.45054C12.2325 1.42106 12.186 1.41955 11.0006 1.41161L9.77388 1.40367L9.68845 1.36966C9.35622 1.23767 9.17278 0.930259 9.22509 0.594147C9.26553 0.332336 9.43598 0.129638 9.6956 0.0344155L9.78781 0.000403701H10.9933C12.275 0.000403701 12.301 0.00151486 12.6547 0.0719092C13.6153 0.263117 14.4888 0.841259 15.0209 1.63783C15.3134 2.07591 15.4961 2.56199 15.5693 3.097C15.5882 3.26897 15.5882 3.80151 15.57 3.96859C15.4891 4.55022 15.3081 5.03313 14.9934 5.50628C14.4966 6.25306 13.7148 6.79101 12.8387 6.98904C12.4743 7.07136 12.5023 7.07004 11.1209 7.07325C10.4189 7.07493 9.82861 7.07322 9.80918 7.0699Z" fill="var(--fill-0, #C7C7C7)"/>
</svg>
