<svg preserveAspectRatio="none" width="100%" height="100%" overflow="visible" style="display: block;" viewBox="0 0 31.8672 14.4713" fill="none" xmlns="http://www.w3.org/2000/svg">
<path id="Link" d="M7.01723 14.4573C5.91141 14.3632 4.98006 14.1066 4.04233 13.6367C1.85863 12.5429 0.395902 10.561 0.0526451 8.23092C-0.0100951 7.8061 -0.0187797 6.74083 0.0375352 6.34704C0.204968 5.15604 0.571712 4.17369 1.20399 3.22243C2.25322 1.64326 3.87506 0.541132 5.72805 0.148099C6.41384 0.0029653 6.46819 0 9.25192 0H11.8622L12.0501 0.0713967C12.4933 0.234672 12.8108 0.549064 12.9535 0.965643C13.0472 1.23928 13.0472 1.63385 12.9535 1.90753C12.8136 2.31583 12.5067 2.62394 12.0644 2.80131L11.8901 2.87271L9.27983 2.88793C6.7223 2.90305 6.66382 2.90297 6.38406 2.96798C4.60602 3.36615 3.3249 4.6522 2.97166 6.39237C2.59673 8.24064 3.48887 10.0671 5.22654 11.0089C5.6387 11.2323 6.04617 11.3786 6.59704 11.5009C6.86198 11.5636 6.96969 11.5636 9.38134 11.581L11.8901 11.5961L12.0644 11.6675C12.6841 11.914 13.0201 12.3945 13.0201 13.0323C13.0201 13.3724 12.94 13.6231 12.7612 13.8655C12.5571 14.1391 12.3908 14.2657 12.0638 14.3966L11.8896 14.468L9.51138 14.4709C8.20344 14.4724 7.08095 14.4694 7.01723 14.4634V14.4573ZM20.054 14.4573C20.0094 14.4498 19.9028 14.4196 19.8079 14.3859C19.1471 14.1539 18.7528 13.4984 18.8604 12.8082C18.9405 12.2806 19.2777 11.8754 19.8079 11.6638L19.9829 11.5925L22.5931 11.5773L25.2036 11.5622L25.5376 11.4907C25.9498 11.3981 26.2225 11.301 26.5913 11.118C28.1904 10.3232 29.1549 8.56593 28.9612 6.79964C28.7541 4.90629 27.3175 3.40868 25.2912 2.97259C25.0115 2.90985 24.9163 2.90993 22.4924 2.89255L19.9836 2.87732L19.8087 2.80593C19.1291 2.53607 18.754 1.90743 18.861 1.2202C18.9411 0.684606 19.2927 0.270232 19.8232 0.075549L20.011 0.00415231H22.4762C25.0971 0.00415231 25.1502 0.00651352 25.8735 0.15006C27.8378 0.541317 29.6241 1.72313 30.712 3.35207C31.3104 4.24789 31.6839 5.24187 31.8336 6.33597C31.8782 6.68822 31.8782 7.7766 31.8349 8.11823C31.669 9.30761 31.2999 10.2951 30.6559 11.2626C29.6399 12.7897 28.0414 13.8897 26.2499 14.2947C25.5052 14.4633 25.5614 14.4602 22.7371 14.467C21.3014 14.4705 20.0941 14.4677 20.0543 14.4633L20.054 14.4573ZM9.90297 8.66069C9.85837 8.65702 9.7374 8.61609 9.62401 8.57187C8.90163 8.316 8.51589 7.4918 8.77146 6.74912C8.93739 6.26618 9.37529 5.89286 9.87385 5.80782C10.0088 5.78136 11.7706 5.78129 16.0514 5.78129L22.0405 5.7889L22.2128 5.85165C22.6543 6.01984 22.969 6.3444 23.1178 6.78615C23.1979 7.03635 23.1892 7.46773 23.0914 7.721C22.9269 8.14411 22.6401 8.4268 22.2111 8.59079L22.0418 8.65342L16.0092 8.65711C12.6913 8.65911 9.94392 8.65536 9.90412 8.6495L9.90297 8.66069Z" fill="var(--fill-0, #C7C7C7)"/>
</svg>
