<svg preserveAspectRatio="none" width="100%" height="100%" overflow="visible" style="display: block;" viewBox="0 0 16.5762 14.2246" fill="none" xmlns="http://www.w3.org/2000/svg">
<path id="Union" d="M15.3115 0.40918L15.7041 0.818359L12.7217 3.6748C12.8268 3.73305 12.9326 3.79357 13.0391 3.85645C14.2031 4.54362 15.5454 5.75996 16.4014 6.9043L16.5762 7.13867L16.4619 7.29199C15.2552 8.90034 13.6268 10.2396 11.9668 10.9883C10.5685 11.6189 9.04114 11.8996 7.63477 11.7852C6.71154 11.7099 5.81753 11.4918 4.93848 11.1289L1.70801 14.2246L0.922852 13.4062L3.85059 10.6016C3.63047 10.4786 3.41042 10.3472 3.19141 10.2051C2.15232 9.531 0.934568 8.38747 0.175781 7.37305L0 7.1377L0.239258 6.82617C1.51165 5.16626 3.32665 3.76759 5.09961 3.08105C6.2109 2.65079 7.09197 2.48603 8.28906 2.48535C9.47646 2.4847 10.5427 2.69205 11.6338 3.14648L14.9199 0L15.3115 0.40918ZM11.5195 4.8252C11.809 5.22539 12.014 5.66995 12.1465 6.18066C12.2689 6.65201 12.2984 7.43046 12.21 7.85156C12.0149 8.77823 11.5299 9.62063 10.8848 10.1533C10.7763 10.243 10.7127 10.3159 10.7441 10.3164C10.7782 10.3164 10.9856 10.2459 11.21 10.1582C12.105 9.80973 12.9968 9.28868 13.793 8.65039C14.1778 8.34203 15.0152 7.52743 15.21 7.27246L15.3125 7.13867L15.1562 6.94727C14.432 6.06405 13.1763 5.06995 12.082 4.51367C12.0322 4.48833 11.979 4.46362 11.9248 4.4375L11.5195 4.8252ZM9.7959 6.47656C9.91852 6.75527 9.9671 7.06642 9.91895 7.36816C9.86604 7.70146 9.79812 7.86488 9.61035 8.12109C9.25061 8.61071 8.59131 8.87444 7.98926 8.76855C7.84859 8.74374 7.70434 8.68765 7.56445 8.61426L6.54004 9.5957C6.87614 9.83112 7.25963 10.01 7.61523 10.0859C7.99475 10.1668 8.59123 10.1688 8.95312 10.0898C9.31859 10.0101 9.91209 9.72388 10.1963 9.49023C10.6956 9.07978 11.0691 8.47962 11.2305 7.83203C11.3018 7.54464 11.313 7.40876 11.2949 7.01758C11.2652 6.39399 11.1285 5.93816 10.8184 5.49707L9.7959 6.47656ZM5.49316 4.32129C5.89676 3.91554 5.90004 3.91825 5.29102 4.15039C4.02669 4.6327 2.58656 5.6401 1.63477 6.70801C1.43749 6.92933 1.27623 7.12193 1.27441 7.1377C1.27441 7.1528 1.42697 7.33616 1.61426 7.54785C2.42213 8.46063 3.50078 9.27047 4.64746 9.83789L5.05566 9.44727C4.48802 8.65548 4.21925 7.67497 4.33203 6.70996C4.43747 5.80651 4.84091 4.97698 5.49316 4.32129ZM8.16699 4.13379C7.03251 4.18485 6.09605 4.78211 5.59668 5.77344C5.10594 6.74761 5.17819 7.90138 5.74902 8.7832L6.77441 7.80078C6.65791 7.51159 6.6104 7.1466 6.6582 6.88965C6.73039 6.50792 6.7276 6.51109 6.86328 6.625C7.20344 6.9111 7.7964 6.80889 8.04199 6.42188C8.21688 6.14648 8.23628 5.89549 8.10645 5.58203C8.04068 5.42254 8.58506 5.46384 8.99707 5.64941C9.00238 5.65181 9.00742 5.65477 9.0127 5.65723L10.0391 4.67383C9.92799 4.58787 9.82348 4.52654 9.6748 4.4541C9.14042 4.19378 8.73769 4.10809 8.16699 4.13379Z" fill="var(--fill-0, #C7C7C7)"/>
</svg>
