<svg preserveAspectRatio="none" width="100%" height="100%" overflow="visible" style="display: block;" viewBox="0 0 22.5478 22.5478" fill="none" xmlns="http://www.w3.org/2000/svg">
<path id="CafeHTML Logo Orange" d="M0 11.2664C0 8.1684 1.10572 5.51865 3.31717 3.31717C5.52861 1.10572 8.18833 0 11.2963 0C14.3844 0 17.0291 1.10572 19.2306 3.31717C21.4421 5.51865 22.5478 8.1684 22.5478 11.2664C22.5478 14.3644 21.4421 17.0192 19.2306 19.2306C17.0291 21.4421 14.3844 22.5478 11.2963 22.5478C8.18833 22.5478 5.52861 21.447 3.31717 19.2456C1.10572 17.0341 0 14.3744 0 11.2664ZM20.68 11.2664C20.68 8.6864 19.7586 6.47495 17.9157 4.63208C16.0728 2.78921 13.8664 1.86777 11.2963 1.86777C8.70632 1.86777 6.48491 2.78921 4.63208 4.63208C2.78921 6.47495 1.86777 8.6864 1.86777 11.2664C1.86777 13.8564 2.78921 16.0778 4.63208 17.9306C6.48491 19.7735 8.70632 20.6949 11.2963 20.6949C13.8664 20.6949 16.0728 19.7685 17.9157 17.9157C19.7586 16.0629 20.68 13.8464 20.68 11.2664ZM14.8974 13.1043L16.7353 13.6422C16.4165 14.9372 15.764 15.9483 14.7778 16.6755C13.8016 17.3927 12.6511 17.7513 11.3262 17.7513C9.48332 17.7513 8.02894 17.1636 6.96307 15.9882C5.90715 14.8027 5.37919 13.174 5.37919 11.1021C5.37919 9.24922 5.92707 7.76496 7.02283 6.64928C8.12856 5.52363 9.59289 4.96081 11.4158 4.96081C12.7108 4.96081 13.7966 5.26463 14.6732 5.87228C15.5598 6.46997 16.1675 7.33662 16.4962 8.47223L14.7181 8.90555C14.1303 7.37149 12.9698 6.60445 11.2365 6.60445C10.091 6.60445 9.16455 7.04276 8.45728 7.91937C7.75998 8.79597 7.41133 9.95151 7.41133 11.386C7.41133 12.8204 7.755 13.9461 8.44234 14.7629C9.12968 15.5698 10.081 15.9732 11.2963 15.9732C12.143 15.9732 12.8951 15.7192 13.5526 15.2112C14.21 14.7031 14.6583 14.0008 14.8974 13.1043Z" fill="var(--fill-0, #EA5823)"/>
</svg>
